<svg xmlns="http://www.w3.org/2000/svg" viewBox="0 0 97.75 97.75"><defs><style>.cls-1{fill:#fff;}</style></defs><title>instagram</title><g id="Layer_2" data-name="Layer 2"><g id="Capa_1" data-name="Capa 1"><ellipse class="cls-1" cx="48.94" cy="48.72" rx="14.47" ry="14.02"/><path class="cls-1" d="M71.33,49.5c0,12-10,21.69-22.39,21.69S26.56,61.48,26.56,49.5a21.05,21.05,0,0,1,.92-6.18H20.86V73.75a2.87,2.87,0,0,0,2.87,2.86H73.88a2.87,2.87,0,0,0,2.87-2.86V43.32H70.41A21.05,21.05,0,0,1,71.33,49.5Z"/><path class="cls-1" d="M65.33,35.11h8.14a3.25,3.25,0,0,0,3.24-3.24V24.11a3.25,3.25,0,0,0-3.24-3.25H65.33a3.25,3.25,0,0,0-3.24,3.25v7.76A3.25,3.25,0,0,0,65.33,35.11Z"/><path class="cls-1" d="M48.88,0A48.88,48.88,0,1,0,97.75,48.88,48.87,48.87,0,0,0,48.88,0ZM75.64,84.89H22.11a9,9,0,0,1-9.25-9.24V22.1a9,9,0,0,1,9.25-9.24H75.65a9,9,0,0,1,9.24,9.24V75.65A9,9,0,0,1,75.64,84.89Z"/></g></g></svg>